<svg width="32" height="32" viewBox="0 0 32 32" fill="none" xmlns="http://www.w3.org/2000/svg">
<path d="M1.14286 5.87755H30.8571C31.4884 5.87755 32 5.29282 32 4.57143V1.30612C32 0.584735 31.4884 0 30.8571 0H1.14286C0.511643 0 0 0.584735 0 1.30612V4.57143C0 5.29282 0.511643 5.87755 1.14286 5.87755ZM1.14286 18.9388H30.8571C31.4884 18.9388 32 18.354 32 17.6327V14.3673C32 13.646 31.4884 13.0612 30.8571 13.0612H1.14286C0.511643 13.0612 0 13.646 0 14.3673V17.6327C0 18.354 0.511643 18.9388 1.14286 18.9388ZM1.14286 32H30.8571C31.4884 32 32 31.4153 32 30.6939V27.4286C32 26.7072 31.4884 26.1224 30.8571 26.1224H1.14286C0.511643 26.1224 0 26.7072 0 27.4286V30.6939C0 31.4153 0.511643 32 1.14286 32Z" fill="#D7CF07"/>
</svg>
